# xmcd
#
# Track frame offsets:
#	150
#	12812
#	31232
#	48070
#	63875
#	76950
#	90627
#	111797
#	125320
#	138445
#	151122
#	161485
#
# Disc length: 2494 seconds
#
# Revision: 0
# Processed by: cddbd v1.4PL0 Copyright (c) Steve Scherf et al.
# Submitted via: EasyCDDAExtractor 4.6.9.1
#
DISCID=8109bc0c
DTITLE=Various Artist - Bluegrass 2000
DYEAR=2000
DGENRE=Bluegrass
TTITLE0=As The Crowe Flies
TTITLE1=Westward
TTITLE2=When Johnny Comes Marching Home
TTITLE3=Foggy Mountain Rock
TTITLE4=Ole Rowdy
TTITLE5=John Henry
TTITLE6=Swing 51
TTITLE7=Christy Lynn
TTITLE8=Farewell Blues
TTITLE9=Blountville
TTITLE10=Season Of Joy
TTITLE11=Surge
EXTD=
EXTT0=
EXTT1=
EXTT2=
EXTT3=
EXTT4=
EXTT5=
EXTT6=
EXTT7=
EXTT8=
EXTT9=
EXTT10=
EXTT11=
PLAYORDER=
